<svg width="500" height="500" viewBox="0 0 500 500" fill="none" xmlns="http://www.w3.org/2000/svg">

  <circle cx="250" cy="250" r="220" fill="#2563EB" opacity="0.15"/>

  <rect x="120" y="160" width="260" height="170" rx="15" fill="#0F172A"/>

  <rect x="135" y="175" width="230" height="130" rx="10" fill="#1E293B"/>

  <rect x="160" y="200" width="120" height="10" rx="5" fill="#F59E0B"/>
  <rect x="160" y="225" width="160" height="10" rx="5" fill="#2563EB"/>
  <rect x="160" y="250" width="100" height="10" rx="5" fill="#F8FAFC"/>

  <rect x="90" y="330" width="320" height="20" rx="10" fill="#334155"/>

  <rect x="320" y="120" width="90" height="90" rx="15" fill="white"/>

  <circle cx="365" cy="155" r="18" fill="#F59E0B"/>

  <rect x="340" y="185" width="50" height="8" rx="4" fill="#CBD5E1"/>

  <path d="M80 260 L120 260 L140 220 L170 300 L200 240 L230 260"
        stroke="#F59E0B"
        stroke-width="6"
        stroke-linecap="round"
        stroke-linejoin="round"/>

</svg>